HIERARCHY
ROOT Hips
{
	OFFSET	0.000000	0.000000	0.000000
	CHANNELS 6 Xposition Yposition Zposition Zrotation Xrotation Yrotation
	JOINT LeftHip
	{
		OFFSET	4.740440	-3.195970	-0.322709
		CHANNELS 3 Zrotation Xrotation Yrotation
		JOINT LeftKnee
		{
			OFFSET	-1.605680	-15.592300	1.005510
			CHANNELS 3 Zrotation Xrotation Yrotation
			JOINT LeftAnkle
			{
				OFFSET	-0.632401	-16.421000	-1.413730
				CHANNELS 3 Zrotation Xrotation Yrotation
				End Site
				{
					OFFSET	0.008423	-3.933000	-1.776750
				}
			}
		}
	}
	JOINT RightHip
	{
		OFFSET	-4.740440	-3.195970	-0.322709
		CHANNELS 3 Zrotation Xrotation Yrotation
		JOINT RightKnee
		{
			OFFSET	1.605680	-15.592300	1.005510
			CHANNELS 3 Zrotation Xrotation Yrotation
			JOINT RightAnkle
			{
				OFFSET	0.632401	-16.421000	-1.413730
				CHANNELS 3 Zrotation Xrotation Yrotation
				End Site
				{
					OFFSET	-0.008423	-3.933000	-1.776750
				}
			}
		}
	}
	JOINT Chest
	{
		OFFSET	0.000000	3.468200	0.078401
		CHANNELS 3 Zrotation Xrotation Yrotation
		JOINT LeftCollar
		{
			OFFSET	3.857650	15.070700	-0.011583
			CHANNELS 3 Zrotation Xrotation Yrotation
			JOINT LeftShoulder
			{
				OFFSET	3.979720	-1.940530	-0.165223
				CHANNELS 3 Zrotation Xrotation Yrotation
				JOINT LeftElbow
				{
					OFFSET	0.615844	-10.986600	-0.673886
					CHANNELS 3 Zrotation Xrotation Yrotation
					JOINT LeftWrist
					{
						OFFSET	0.826843	-10.854500	1.034220
						CHANNELS 3 Zrotation Xrotation Yrotation
						End Site
						{
							OFFSET	-1.679080	-8.456540	0.936217
						}
					}
				}
			}
		}
		JOINT RightCollar
		{
			OFFSET	-3.857650	15.070700	-0.011583
			CHANNELS 3 Zrotation Xrotation Yrotation
			JOINT RightShoulder
			{
				OFFSET	-3.979720	-1.940530	-0.165223
				CHANNELS 3 Zrotation Xrotation Yrotation
				JOINT RightElbow
				{
					OFFSET	-0.615845	-10.986600	-0.673886
					CHANNELS 3 Zrotation Xrotation Yrotation
					JOINT RightWrist
					{
						OFFSET	-0.826843	-10.854500	1.034220
						CHANNELS 3 Zrotation Xrotation Yrotation
						End Site
						{
							OFFSET	1.679080	-8.456540	0.936217
						}
					}
				}
			}
		}
		JOINT Neck
		{
			OFFSET	0.000000	15.101400	0.055730
			CHANNELS 3 Zrotation Xrotation Yrotation
			JOINT Head
			{
				OFFSET	0.000000	4.185120	1.488260
				CHANNELS 3 Zrotation Xrotation Yrotation
				End Site
				{
					OFFSET	0.000000	7.773420	-0.106016
				}
			}
		}
	}
}
MOTION
Frames:     17
Frame Time: 0.016667
4.750232	39.259029	45.154907	-1.973167	-2.595575	66.428688	7.950198	-9.770809	3.911794	-3.785650	11.827079	18.984404	-2.258272	-0.121850	9.211309	-1.147693	4.006135	-6.727736	-1.256443	2.669054	-12.325394	8.184528	-1.874349	2.473836	1.777637	5.561577	3.291187	11.821239	-16.463207	-2.475895	44.780586	-40.640804	17.967121	44.977787	-100.538048	64.098457	7.414934	3.828365	10.720735	-12.417644	-16.554085	19.652534	-71.392403	-17.723036	-28.808697	61.956394	-94.384941	45.886345	-25.452616	20.907318	-11.316531	0.960608	-15.083643	21.001604	5.022510	6.033335	-15.492730	
4.533252	39.251362	45.280277	-1.849756	-2.450981	65.866753	8.097402	-9.723194	3.858047	-3.698527	11.554898	19.443708	-2.536875	0.215005	9.350438	-1.207447	3.794125	-6.699381	-1.090878	2.714200	-11.844324	7.701872	-2.184739	2.508038	1.817206	5.353015	3.141998	11.451926	-16.019466	-2.544426	43.026634	-39.951622	17.101305	45.701805	-101.531593	64.976402	7.648655	3.785500	9.630877	-12.235273	-15.930274	19.618437	-69.693459	-18.283689	-28.850391	40.780781	-93.570625	24.964441	-25.723751	20.687080	-11.153470	0.964310	-14.332581	21.497875	5.615032	7.445048	-15.934838	
4.467559	39.247555	45.316658	-1.820705	-2.414025	65.698425	8.154675	-9.726381	3.844365	-3.681489	11.496699	19.630270	-2.608477	0.300890	9.357724	-1.182907	3.608543	-6.814243	-1.080059	2.843955	-11.552131	7.570306	-2.381422	2.516603	1.833004	5.283086	3.068097	11.375852	-15.879196	-2.504272	39.218327	-39.464172	14.959283	46.185501	-102.809265	64.050392	7.943353	3.643274	8.642359	-12.172650	-15.711032	19.582153	-69.075134	-18.515602	-28.841993	30.257483	-93.056015	13.902423	-26.152815	20.126137	-10.751157	1.100109	-14.018559	21.612448	5.692257	7.916516	-16.022995	
4.278204	39.239510	45.424873	-1.670103	-2.352638	65.249550	8.304377	-9.678014	3.733784	-3.568936	11.360090	20.138399	-2.874748	0.579944	9.413935	-1.308512	3.492285	-6.452365	-0.741489	2.908076	-11.359663	7.118576	-2.486277	2.402876	1.882591	5.090734	2.742540	11.091377	-15.252578	-2.470506	37.153706	-38.826080	13.994456	46.749928	-103.814560	64.212624	8.371103	3.439419	7.656067	-11.796993	-14.947205	19.690571	-67.261101	-19.163568	-28.920824	2.914120	-93.474968	-12.850883	-26.210512	20.819574	-11.082172	1.234110	-13.413808	22.287651	6.492009	9.616572	-16.793621	
4.202704	39.224983	45.464077	-1.623651	-2.349597	65.124641	8.372031	-9.710708	3.673214	-3.535500	11.377765	20.288933	-2.876806	0.574039	9.461510	-1.239716	3.311543	-6.259883	-0.736425	3.065055	-11.344532	6.951407	-2.596992	2.305725	1.892215	5.021042	2.624207	11.003755	-14.997461	-2.507144	34.626488	-38.290436	12.584968	47.327805	-104.760696	64.495163	8.773982	3.059249	6.292588	-11.630033	-14.685766	19.729189	-65.659897	-19.310623	-29.003572	-15.318839	-94.061058	-31.026407	-26.487640	21.066307	-10.951689	1.392227	-12.934074	22.343502	6.555786	10.042531	-16.886683	
4.025559	39.225636	45.541973	-1.418330	-2.457386	64.743668	8.639471	-9.633670	3.488856	-3.480541	11.398765	20.775484	-3.141999	0.841762	9.519060	-1.091455	3.310975	-5.693902	-0.513706	3.189987	-11.233713	6.519958	-2.681238	1.994030	2.069425	4.936864	2.321377	10.490602	-14.267215	-2.711330	34.221184	-37.837749	12.668130	48.397930	-105.326889	66.487823	8.813403	2.760396	6.009714	-11.305976	-13.948765	19.721889	-64.184952	-20.043093	-29.102839	-27.593422	-95.028427	-43.321121	-26.880188	21.374804	-10.641938	1.511903	-12.119923	22.616735	7.415413	11.814370	-17.593445	
3.974512	39.224354	45.568996	-1.342851	-2.497363	64.623123	8.733182	-9.578225	3.427531	-3.489280	11.394612	20.931000	-3.187516	0.895906	9.539043	-0.938286	3.169680	-5.418993	-0.572974	3.361896	-11.319875	6.366128	-2.810167	1.910170	2.150371	4.950385	2.239003	10.265182	-14.088388	-2.804437	30.158745	-36.783890	10.442093	48.625389	-106.584251	65.398102	8.863294	2.281092	4.403084	-11.264023	-13.754177	19.635855	-63.260845	-20.249876	-29.067072	-31.459301	-95.598007	-47.245979	-27.160791	21.521490	-10.392009	1.567569	-11.626493	22.343290	7.519639	12.242764	-17.500612	
3.779990	39.213890	45.655094	-1.102417	-2.611215	64.228371	9.033235	-9.517095	3.429898	-3.450940	11.523071	21.199661	-3.415277	1.099266	9.639832	-0.833672	3.245912	-4.981135	-0.348011	3.470722	-11.111950	5.956942	-2.938749	1.645081	2.390544	4.987196	2.027113	9.545887	-13.439281	-3.113370	28.248222	-35.878029	9.677340	48.731293	-107.299606	65.191017	8.343573	1.893753	3.598555	-11.031474	-13.149544	19.399794	-60.190102	-20.831617	-28.786089	-39.939240	-97.461563	-55.830978	-28.426241	21.942871	-9.377453	1.424332	-11.367040	22.729040	8.910701	14.365061	-18.790688	
3.718637	39.213181	45.688015	-1.030025	-2.657570	64.099953	9.138200	-9.484467	3.433515	-3.413822	11.550978	21.271845	-3.523296	1.182690	9.680168	-0.741792	3.113828	-4.828371	-0.341052	3.675896	-11.066128	5.817445	-3.057986	1.567030	2.512883	5.024357	1.978242	9.256347	-13.242027	-3.214866	25.474649	-34.964062	8.198751	48.813236	-107.960953	64.923203	8.131171	1.351125	1.972326	-10.930899	-12.925146	19.325680	-59.156227	-21.041147	-28.690090	-42.256016	-98.077225	-58.138065	-29.015375	22.123072	-8.908134	1.390402	-11.447855	22.816265	9.388037	15.210678	-19.256294	
3.556087	39.220490	45.744297	-0.806258	-2.778405	63.743198	9.392323	-9.240522	3.472583	-3.411259	11.358420	21.503326	-3.663294	1.502325	9.747446	-0.654597	3.152362	-4.479702	-0.152353	3.771292	-10.932733	5.465820	-3.120282	1.423287	2.715734	5.058018	1.723464	8.527206	-12.640973	-3.385170	23.432316	-33.931538	7.376223	49.746681	-108.807137	65.778648	7.962811	0.814076	1.830102	-10.310127	-12.255787	19.266577	-56.227131	-21.375277	-28.269924	-46.688065	-99.920631	-62.689251	-30.732468	22.968872	-7.690983	1.444721	-11.106013	22.934265	10.541472	17.249266	-20.395514	
3.496583	39.220070	45.755394	-0.720525	-2.809525	63.620953	9.465128	-9.171144	3.533410	-3.422243	11.314767	21.570763	-3.689845	1.604456	9.738793	-0.616346	3.145476	-4.411912	-0.108342	3.824179	-10.863231	5.338616	-3.144028	1.400279	2.777354	5.083125	1.646365	8.246474	-12.470916	-3.453212	20.815250	-32.809669	6.157513	50.152241	-109.778572	64.962685	7.950741	0.473464	1.393094	-10.104802	-12.057408	19.255527	-55.232075	-21.380810	-28.125544	-47.640743	-100.546280	-63.786659	-31.224142	23.254650	-7.313687	1.494166	-10.809443	22.885616	10.744100	17.757862	-20.670532	
3.352311	39.218529	45.802547	-0.590955	-2.773407	63.287025	9.631344	-9.047361	3.673724	-3.506584	11.090861	21.801594	-3.740147	1.900462	9.717900	-0.658737	2.974880	-4.268106	0.086765	3.977197	-10.525054	5.002524	-3.174071	1.229790	2.929376	5.091900	1.426383	7.276251	-11.938591	-3.790808	19.303658	-31.596548	5.524321	51.459064	-110.430748	67.446243	7.779511	-0.350505	-0.119670	-9.703903	-11.500216	18.978354	-51.812866	-21.408978	-27.725056	-50.352043	-102.469704	-66.967842	-32.613495	23.879345	-6.526818	1.647553	-9.407755	22.638859	11.040366	18.691309	-21.370716	
3.314737	39.216797	45.801762	-0.571749	-2.745369	63.180138	9.618456	-9.047469	3.705935	-3.477664	11.034633	21.882401	-3.754492	1.987011	9.711822	-0.661729	2.799057	-4.275951	0.113843	4.121902	-10.356810	4.893855	-3.223501	1.165600	2.956859	5.059401	1.333699	6.985859	-11.757959	-3.867967	17.078667	-30.180943	4.179546	51.402744	-111.007149	67.246361	7.746523	-1.052559	-1.751632	-9.561707	-11.302216	18.856327	-50.568905	-21.434677	-27.540981	-51.384056	-103.088318	-68.079628	-33.200951	23.984482	-6.273605	1.808249	-8.837807	22.060345	10.807501	18.997604	-21.055256	
3.197230	39.206352	45.801178	-0.483819	-2.711130	62.856468	9.637299	-9.025798	3.715925	-3.447393	10.914289	22.214785	-3.767890	2.160217	9.712311	-0.673675	2.658535	-3.949282	0.284639	4.221446	-10.190581	4.595860	-3.251203	0.972352	2.999827	5.060443	0.974272	6.322817	-11.194345	-3.928932	15.633632	-28.831520	3.335451	51.295067	-111.495300	67.091125	7.993021	-1.311634	-2.108366	-9.062449	-10.724883	18.526525	-46.835938	-21.468420	-26.829468	-54.507809	-104.735840	-70.941048	-35.326118	24.106199	-5.365803	1.868446	-8.496374	21.887999	11.511283	20.503353	-21.890242	
3.156962	39.203793	45.796558	-0.463599	-2.682877	62.737453	9.616947	-9.034736	3.733224	-3.411760	10.864950	22.319834	-3.782108	2.248256	9.709042	-0.656900	2.568539	-3.824004	0.307333	4.280648	-10.144135	4.488491	-3.294473	0.907824	2.999847	5.043897	0.864991	6.129853	-11.012094	-3.917594	13.529116	-27.402340	1.969114	50.517712	-112.008217	65.148727	8.198835	-1.614741	-2.815629	-8.870196	-10.501434	18.456629	-45.689659	-21.426167	-26.577246	-55.473400	-105.190758	-71.631142	-36.045185	24.119335	-5.027028	1.909573	-8.345421	21.764500	11.652178	20.906063	-22.090805	
3.031714	39.199436	45.795326	-0.384083	-2.646036	62.356197	9.646297	-9.006451	3.814995	-3.354877	10.715129	22.590851	-3.832684	2.508899	9.737679	-0.632078	2.325447	-3.435731	0.393623	4.490599	-10.054245	4.243092	-3.319878	0.787557	3.049721	5.058378	0.629232	5.517277	-10.496732	-3.967622	12.151350	-26.096998	0.995937	51.791737	-111.909683	67.593315	8.738084	-2.499719	-4.995612	-8.264761	-9.835981	18.171326	-42.512344	-21.070213	-25.572493	-57.485413	-106.174034	-72.613617	-37.804585	23.998821	-3.744401	1.929468	-7.884071	21.477488	12.123731	21.838911	-22.923374	
2.988338	39.198586	45.790489	-0.371800	-2.641050	62.240646	9.657959	-9.019789	3.804601	-3.327044	10.666442	22.719728	-3.848778	2.605646	9.735358	-0.548517	2.150354	-3.313819	0.364009	4.639140	-10.015345	4.140446	-3.371712	0.727884	3.111073	5.079922	0.543777	5.279647	-10.337388	-3.976068	10.278650	-24.611904	-0.434876	52.193939	-111.803467	67.885582	8.824193	-3.538316	-6.733550	-8.090182	-9.653006	18.076176	-41.472229	-20.874079	-25.177031	-58.040012	-106.394905	-72.850479	-38.328976	23.922907	-3.347290	1.918052	-7.826886	21.422310	12.302976	22.148310	-23.286592	
